<svg xmlns="http://www.w3.org/2000/svg" viewBox="0 0 400 200" role="img" aria-label="AuraStudioZa">
  <defs>
    <linearGradient id="leftFacet" x1="0%" y1="0%" x2="100%" y2="100%">
      <stop offset="0%" stop-color="#1e3a8a"/>
      <stop offset="100%" stop-color="#0c1447"/>
    </linearGradient>
    <linearGradient id="rightFacet" x1="0%" y1="0%" x2="100%" y2="100%">
      <stop offset="0%" stop-color="#ffcc00"/>
      <stop offset="35%" stop-color="#ffb300"/>
      <stop offset="100%" stop-color="#1e3a8a"/>
    </linearGradient>
    <linearGradient id="topFacet" x1="50%" y1="0%" x2="50%" y2="100%">
      <stop offset="0%" stop-color="#fff8dc"/>
      <stop offset="100%" stop-color="#2563eb"/>
    </linearGradient>
    <linearGradient id="ribbon" x1="0%" y1="0%" x2="100%" y2="0%">
      <stop offset="0%" stop-color="#ffe566"/>
      <stop offset="50%" stop-color="#ffcc00"/>
      <stop offset="100%" stop-color="#ffb300"/>
    </linearGradient>
    <linearGradient id="auraGlow" x1="0%" y1="0%" x2="100%" y2="0%">
      <stop offset="0%" stop-color="#3b82f6" stop-opacity="0.55"/>
      <stop offset="50%" stop-color="#ffb300" stop-opacity="0.35"/>
      <stop offset="100%" stop-color="#ffcc00" stop-opacity="0.55"/>
    </linearGradient>
    <linearGradient id="goldText" x1="0%" y1="0%" x2="100%" y2="0%">
      <stop offset="0%" stop-color="#ffe566"/>
      <stop offset="100%" stop-color="#ffb300"/>
    </linearGradient>
    <linearGradient id="edgeGold" x1="0%" y1="0%" x2="100%" y2="100%">
      <stop offset="0%" stop-color="#ffb300"/>
      <stop offset="100%" stop-color="#fff3c4"/>
    </linearGradient>
    <filter id="auraBlur" x="-50%" y="-50%" width="200%" height="200%">
      <feGaussianBlur stdDeviation="6"/>
    </filter>
    <filter id="markShadow" x="-20%" y="-20%" width="140%" height="140%">
      <feDropShadow dx="0" dy="4" stdDeviation="5" flood-color="#0c1447" flood-opacity="0.35"/>
    </filter>
  </defs>
  <g transform="translate(168,8)" filter="url(#markShadow)">
    <ellipse cx="32" cy="12" rx="30" ry="12" fill="url(#auraGlow)" filter="url(#auraBlur)" opacity="0.9"/>
    <ellipse cx="32" cy="58" rx="22" ry="3.5" fill="#1e3a8a" opacity="0.18"/>
    <path d="M6 58 L32 4 L58 58 Z" fill="#0c1447"/>
    <path d="M6 58 L32 4 L32 58 Z" fill="url(#leftFacet)"/>
    <path d="M32 4 L58 58 L32 58 Z" fill="url(#rightFacet)"/>
    <path d="M18 24 L32 4 L46 24 L32 32 Z" fill="url(#topFacet)" opacity="0.95"/>
    <path d="M12 36 C12 30 32 25 52 36 L52 41 C32 36 12 41 12 36 Z" fill="url(#ribbon)" stroke="#fff3c4" stroke-width="0.6"/>
    <path d="M22 46 H42" stroke="#fff8e7" stroke-width="2.8" stroke-linecap="round" opacity="0.85"/>
    <path d="M8 58 L32 4 L58 58" fill="none" stroke="url(#edgeGold)" stroke-width="1.4" stroke-linejoin="round"/>
    <path d="M8 58 L32 4" stroke="#2563eb" stroke-width="0.9" opacity="0.45"/>
    <path d="M32 4 L58 58" stroke="#b8860b" stroke-width="0.6" opacity="0.35"/>
  </g>
  <text x="200" y="148" text-anchor="middle" font-family="Arial, Helvetica, sans-serif" font-size="32" font-weight="700" letter-spacing="-0.03em">
    <tspan fill="url(#goldText)">Aura</tspan><tspan fill="#0c1447">Studio</tspan><tspan fill="url(#goldText)">Za</tspan>
  </text>
  <text x="200" y="176" text-anchor="middle" font-family="Arial, Helvetica, sans-serif" font-size="11" font-weight="600" fill="#334155" letter-spacing="0.2em">DESIGN &#8226; MEDIA &#8226; CREATIVE</text>
</svg>
