<svg xmlns="http://www.w3.org/2000/svg" viewBox="0 0 32 32" role="img" aria-label="AuraStudioZa">
  <rect width="32" height="32" rx="8" fill="#0c1447"/>
  <ellipse cx="16" cy="8" rx="12" ry="4.5" fill="#3b82f6" opacity="0.35"/>
  <path d="M5 27 L16 5 L27 27 Z" fill="#0c1447"/>
  <path d="M5 27 L16 5 L16 27 Z" fill="#1e3a8a"/>
  <path d="M16 5 L27 27 L16 27 Z" fill="url(#icR)"/>
  <path d="M11 20 L16 5 L21 20 L16 24 Z" fill="url(#icT)" opacity="0.9"/>
  <path d="M7 17 C7 15 16 13 25 17 L25 19 C16 17 7 19 7 17 Z" fill="url(#icRb)"/>
  <path d="M11 22 H21" stroke="#fff8e7" stroke-width="1.3" stroke-linecap="round"/>
  <path d="M5 27 L16 5 L27 27" fill="none" stroke="#ffb300" stroke-width="0.9"/>
  <defs>
    <linearGradient id="icR" x1="0%" y1="0%" x2="100%" y2="100%">
      <stop offset="0%" stop-color="#ffcc00"/>
      <stop offset="100%" stop-color="#1e3a8a"/>
    </linearGradient>
    <linearGradient id="icT" x1="50%" y1="0%" x2="50%" y2="100%">
      <stop offset="0%" stop-color="#fff8dc"/>
      <stop offset="100%" stop-color="#2563eb"/>
    </linearGradient>
    <linearGradient id="icRb" x1="0%" y1="0%" x2="100%" y2="0%">
      <stop offset="0%" stop-color="#ffe566"/>
      <stop offset="100%" stop-color="#ffb300"/>
    </linearGradient>
  </defs>
</svg>
